<svg width="19" height="18" fill="none" xmlns="http://www.w3.org/2000/svg"><path fill-rule="evenodd" clip-rule="evenodd" d="M18.75 9c0-.315-.122-.617-.339-.84a1.14 1.14 0 00-.817-.348H4.197l4.965-5.096a1.192 1.192 0 00.34-.841 1.217 1.217 0 00-.34-.84 1.156 1.156 0 00-.818-.349 1.131 1.131 0 00-.819.348L.587 8.16a1.19 1.19 0 00-.34.84 1.215 1.215 0 00.34.84l6.938 7.126a1.14 1.14 0 001.637 0 1.208 1.208 0 000-1.681l-4.965-5.098h13.397c.306 0 .6-.125.817-.347.217-.223.339-.525.339-.84z" fill="#fff"/></svg>