<svg width="60" height="60" fill="none" xmlns="http://www.w3.org/2000/svg"><path d="M30 0C13.43 0 0 13.431 0 30c0 16.569 13.431 30 30 30 16.569 0 30-13.431 30-30C59.98 13.44 46.56.019 30 0z" fill="#FFC107"/><path d="M31.305 44.348h-9.131c-.72 0-1.304-.584-1.304-1.304V16.957c0-.72.584-1.305 1.304-1.305h9.13A7.826 7.826 0 0135.627 30a7.826 7.826 0 01-4.323 14.348zm-7.827-2.609h7.826a5.217 5.217 0 100-10.434h-7.826v10.434zm0-13.043h7.826a5.217 5.217 0 000-10.435h-7.826v10.435z" fill="#FAFAFA"/><path d="M24.783 18.26c-.72 0-1.305-.583-1.305-1.304v-2.608a1.304 1.304 0 012.61 0v2.608c0 .721-.585 1.305-1.305 1.305zm5.217 0c-.72 0-1.304-.583-1.304-1.304v-2.608a1.304 1.304 0 012.609 0v2.608c0 .721-.584 1.305-1.305 1.305zm-5.217 28.697c-.72 0-1.305-.584-1.305-1.305v-2.608a1.304 1.304 0 012.61 0v2.608c0 .72-.585 1.305-1.305 1.305zm5.217 0c-.72 0-1.304-.584-1.304-1.305v-2.608a1.304 1.304 0 012.609 0v2.608c0 .72-.584 1.305-1.305 1.305z" fill="#FAFAFA"/></svg>