<svg width="26" height="26" fill="none" xmlns="http://www.w3.org/2000/svg"><g clip-path="url(#clip0)"><path d="M21.653 13.64c-.604-.78-1.515-1.317-2.734-1.609C20.47 11.24 21.153 9.896 20.966 8c-.063-.687-.253-1.283-.57-1.788a3.58 3.58 0 00-1.29-1.219 7.098 7.098 0 00-1.766-.703 13.93 13.93 0 00-2.187-.351V0h-2.406v3.828c-.417 0-1.052.01-1.906.031V0H8.434v3.938c-.344.01-.849.015-1.516.015l-3.312-.015V6.5H5.34c.792 0 1.255.354 1.39 1.063v4.484c.105 0 .188.006.251.016h-.25v6.281c-.083.531-.385.797-.906.797H4.09l-.485 2.86H6.73c.198 0 .484.002.86.007.375.005.656.008.843.008V26h2.407v-3.937c.437.01 1.073.015 1.906.015V26h2.406v-3.984a19.01 19.01 0 002.274-.234 9.252 9.252 0 001.898-.54c.604-.245 1.11-.55 1.515-.914a4.313 4.313 0 001.009-1.39c.265-.563.434-1.214.507-1.954.136-1.448-.099-2.562-.703-3.344zM10.887 6.672l.617-.008c.34-.006.62-.01.844-.016.224-.005.526.008.907.04.38.03.7.072.96.124.26.052.548.138.86.258.313.12.563.265.75.437.187.172.346.391.476.657.13.265.196.57.196.914 0 .291-.047.557-.14.797-.094.24-.235.44-.422.601-.188.162-.38.303-.579.422-.198.12-.45.216-.758.29-.307.072-.575.13-.804.171-.23.042-.516.07-.86.086a45.39 45.39 0 01-.78.031c-.178.005-.42.005-.727 0a58.048 58.048 0 00-.54-.008V6.673zm6.571 10.64c-.1.24-.227.448-.383.626a2.17 2.17 0 01-.617.468 5.292 5.292 0 01-.742.328c-.24.084-.53.156-.867.22-.34.062-.636.106-.892.132a20.571 20.571 0 01-2.492.078 52.27 52.27 0 00-.578-.008v-5.281c.083 0 .33-.005.742-.016.412-.01.748-.015 1.008-.015s.62.015 1.079.046c.458.032.843.078 1.156.14a7.61 7.61 0 011.023.29c.37.13.67.289.899.476.23.188.422.427.578.72.157.29.235.624.235 1 0 .291-.05.557-.149.796z" fill="#696CA1"/></g><defs><clipPath id="clip0"><path fill="#fff" d="M0 0h26v26H0z"/></clipPath></defs></svg>