<svg width="101" height="101" fill="none" xmlns="http://www.w3.org/2000/svg"><path d="M44 3.753a13 13 0 0113 0l30.734 17.744a13 13 0 016.5 11.259v35.488a13 13 0 01-6.5 11.259L57 97.247a13 13 0 01-13 0L13.266 79.503a13 13 0 01-6.5-11.259V32.756a13 13 0 016.5-11.259L44 3.753z" fill="#FFE600" fill-opacity=".11"/><g filter="url(#filter0_i)"><path d="M44 13.585a13 13 0 0113 0l22.22 12.828a13 13 0 016.5 11.259v25.657a13 13 0 01-6.5 11.258L57 87.415a13 13 0 01-13 0L21.78 74.587a13 13 0 01-6.5-11.259V37.671a13 13 0 016.5-11.258L44 13.585z" fill="#FFE600"/></g><path d="M53.39 65.893a.723.723 0 100-1.446.723.723 0 000 1.446z" fill="#111348"/><path d="M59.172 69a2.17 2.17 0 002.168-2.168V34.168A2.17 2.17 0 0059.172 32H41.828a2.17 2.17 0 00-2.168 2.168v32.664A2.17 2.17 0 0041.828 69h17.344zM41.106 34.168c0-.399.323-.723.722-.723h17.344c.399 0 .723.324.723.723v2.602h-18.79v-2.602zm0 4.047h18.788V61.34H41.106V38.215zm0 28.617v-4.047h18.788v4.047a.723.723 0 01-.722.723H41.828a.723.723 0 01-.723-.723z" fill="#111348"/><path d="M47.61 65.893h2.89a.723.723 0 100-1.446h-2.89a.723.723 0 100 1.446zm1.445-26.233h-4.336c-.4 0-.723.324-.723.723v4.336c0 .399.324.722.723.722h4.336a.722.722 0 00.722-.722v-4.336c0-.4-.323-.723-.722-.723zm-.723 4.336h-2.89v-2.89h2.89v2.89zm.723 2.891h-4.336c-.4 0-.723.323-.723.722v4.336c0 .4.324.723.723.723h4.336a.723.723 0 00.722-.723V47.61a.722.722 0 00-.722-.722zm-.723 4.336h-2.89v-2.891h2.89v2.89zm.723 2.89h-4.336c-.4 0-.723.324-.723.723v4.336c0 .399.324.723.723.723h4.336a.723.723 0 00.722-.723v-4.336c0-.4-.323-.723-.722-.723zm-.723 4.336h-2.89v-2.89h2.89v2.89zm7.949-18.066h-4.336a.723.723 0 100 1.445h4.336a.723.723 0 100-1.445zm-4.336 4.336h2.89a.723.723 0 100-1.446h-2.89a.723.723 0 100 1.446zm0 7.226h2.89a.723.723 0 100-1.445h-2.89a.723.723 0 100 1.445zm2.891 5.782h-2.89a.723.723 0 100 1.445h2.89a.723.723 0 100-1.445zm1.445-10.117h-4.336a.723.723 0 100 1.445h4.336a.723.723 0 100-1.446zm0 7.226h-4.336a.723.723 0 100 1.445h4.336a.723.723 0 100-1.445z" fill="#111348"/><defs><filter id="filter0_i" x="15.28" y="11.843" width="70.439" height="77.314" filterUnits="userSpaceOnUse" color-interpolation-filters="sRGB"><feFlood flood-opacity="0" result="BackgroundImageFix"/><feBlend in="SourceGraphic" in2="BackgroundImageFix" result="shape"/><feColorMatrix in="SourceAlpha" values="0 0 0 0 0 0 0 0 0 0 0 0 0 0 0 0 0 0 127 0" result="hardAlpha"/><feOffset/><feGaussianBlur stdDeviation="13"/><feComposite in2="hardAlpha" operator="arithmetic" k2="-1" k3="1"/><feColorMatrix values="0 0 0 0 1 0 0 0 0 1 0 0 0 0 1 0 0 0 0.46 0"/><feBlend in2="shape" result="effect1_innerShadow"/></filter></defs></svg>