<svg width="40" height="40" fill="none" xmlns="http://www.w3.org/2000/svg"><circle cx="20" cy="20" r="20" fill="#6C27FF"/><path d="M22.623 25.113H17.44a.297.297 0 110-.594h5.184a.744.744 0 100-1.484H19.85a.297.297 0 01-.201-.078 5.241 5.241 0 00-3.551-1.381h-3.302a.297.297 0 010-.595h3.302a5.835 5.835 0 013.865 1.46h2.66a1.337 1.337 0 110 2.672h.002zm2.931 1.704a.297.297 0 01-.137-.561l.776-.401a.298.298 0 11.273.527l-.776.402a.293.293 0 01-.136.033zm-5.363 2.051c-.697 0-1.39-.12-2.046-.357l-5.453-1.97a.298.298 0 11.203-.56l5.452 1.972a5.45 5.45 0 002.54.276.298.298 0 01.076.59 6.04 6.04 0 01-.772.05zm2.732-.695a.297.297 0 01-.138-.561l.78-.405a.298.298 0 11.273.528l-.779.405a.297.297 0 01-.136.033z" fill="#fff"/><path d="M28.182 25.461a.297.297 0 01-.136-.561l1.539-.794-.17-.148a2.484 2.484 0 00-2.448-.49l-3.377 1.157a.3.3 0 01-.322-.083.298.298 0 01.129-.48l3.377-1.156a3.08 3.08 0 013.035.606l.496.436a.3.3 0 01.048.393.296.296 0 01-.108.094l-1.926.994a.297.297 0 01-.137.032zm-16.306 2.348H9.892a.297.297 0 01-.298-.298V20a.297.297 0 01.298-.297h1.984a1.22 1.22 0 011.216 1.216v5.673a1.219 1.219 0 01-1.216 1.217zm-1.687-.595h1.687a.623.623 0 00.622-.622V20.92a.622.622 0 00-.622-.622h-1.687v6.917zm12.784-6.322a4.906 4.906 0 110-9.811 4.906 4.906 0 010 9.81zm0-9.216a4.31 4.31 0 100 8.62 4.31 4.31 0 000-8.62z" fill="#fff"/><path d="M22.973 16.284a1.567 1.567 0 111.568-1.568.297.297 0 11-.595 0 .973.973 0 10-.973.973.297.297 0 010 .595z" fill="#fff"/><path d="M22.973 18.825a1.57 1.57 0 01-1.568-1.568.297.297 0 11.595 0 .972.972 0 10.973-.973.298.298 0 010-.595 1.568 1.568 0 110 3.136z" fill="#fff"/><path d="M22.973 19.333a.297.297 0 01-.297-.297v-6.098a.298.298 0 01.594 0v6.097a.297.297 0 01-.297.298z" fill="#fff"/></svg>