<svg width="17" height="17" fill="none" xmlns="http://www.w3.org/2000/svg"><g clip-path="url(#clip0)"><path d="M15.218 11.997a7.21 7.21 0 001.489-4.376v1.758a7.208 7.208 0 01-1.466 4.344v-1.706l-.023-.02z" fill="#CE893D"/><path d="M15.241 12.017v1.706a7.757 7.757 0 01-1.465 1.492v-1.732l-.015-.018a7.77 7.77 0 001.457-1.468l.023.02z" fill="#E6A71E"/><path d="M8.5 0c4.531 0 8.207 3.412 8.207 7.62a7.21 7.21 0 01-1.49 4.377 7.77 7.77 0 01-1.456 1.468c-.45.354-.936.657-1.45.906a8.535 8.535 0 01-1.76.63 8.88 8.88 0 01-4.103 0 8.536 8.536 0 01-1.758-.63 7.931 7.931 0 01-1.451-.906 7.772 7.772 0 01-1.457-1.468A7.21 7.21 0 01.293 7.62C.293 3.41 3.969 0 8.5 0z" fill="#FFCB5A"/><path d="M13.776 13.483v1.732a7.955 7.955 0 01-1.463.912l-.003-.006v-1.75a7.926 7.926 0 001.451-.906l.015.018z" fill="#CE893D"/><path d="M12.31 16.12l.003.007a8.458 8.458 0 01-1.75.63l-.011-.05V15a8.537 8.537 0 001.758-.63v1.75z" fill="#E6A71E"/><path d="M10.563 16.757A8.836 8.836 0 018.5 17v-1.759c.691.002 1.38-.08 2.052-.24v1.706l.011.05z" fill="#CE893D"/><path d="M8.5 15.241V17a8.837 8.837 0 01-2.063-.243l.011-.05V15c.672.16 1.361.242 2.052.24z" fill="#E6A71E"/><path d="M6.448 15.001v1.706l-.012.05a8.459 8.459 0 01-1.75-.63l.003-.006v-1.75a8.535 8.535 0 001.759.63z" fill="#CE893D"/><path d="M3.239 13.465c.45.354.936.657 1.45.906v1.75l-.002.006a8.112 8.112 0 01-1.463-.912v-1.732l.015-.018z" fill="#E6A71E"/><path d="M1.782 11.997a7.772 7.772 0 001.457 1.468l-.015.018v1.732a7.758 7.758 0 01-1.465-1.492v-1.706l.023-.02z" fill="#CE893D"/><path d="M.293 7.62a7.21 7.21 0 001.489 4.377l-.024.02v1.706A7.208 7.208 0 01.293 9.379V7.621zm14.655 0c0-3.237-2.887-5.861-6.448-5.861-3.561 0-6.448 2.624-6.448 5.862 0 3.237 2.887 5.862 6.448 5.862 3.561 0 6.448-2.625 6.448-5.862z" fill="#E6A71E"/><path d="M12.528 11.059l-.4-.428c.342-.319.632-.69.86-1.1l.513.282a5.013 5.013 0 01-.973 1.245z" fill="#FFCB5A"/><path d="M8.5 12.603c-3.07 0-5.569-2.235-5.569-4.982 0-2.748 2.498-4.983 5.57-4.983 3.07 0 5.568 2.235 5.568 4.983h-.586c0-2.425-2.235-4.397-4.983-4.397-2.747 0-4.983 1.972-4.983 4.397 0 2.424 2.236 4.396 4.983 4.396a5.426 5.426 0 002.781-.75l.3.503a6.014 6.014 0 01-3.08.833z" fill="#FFCB5A"/></g><defs><clipPath id="clip0"><path fill="#fff" d="M0 0h17v17H0z"/></clipPath></defs></svg>