<svg width="40" height="40" fill="none" xmlns="http://www.w3.org/2000/svg"><circle cx="20" cy="20" r="20" fill="#6C27FF"/><g clip-path="url(#clip0)" fill="#fff"><path d="M25.4 23.496c-1.067 0-1.618.387-2.103.729-.427.3-.764.537-1.497.537-.733 0-1.07-.237-1.497-.537-.486-.342-1.036-.729-2.103-.729-1.067 0-1.618.387-2.103.729-.427.3-.764.537-1.497.537-.733 0-1.07-.237-1.497-.537-.486-.342-1.036-.729-2.103-.729v1.055c.733 0 1.07.237 1.497.537.486.341 1.036.728 2.103.728 1.067 0 1.617-.387 2.103-.728.427-.3.764-.537 1.497-.537.733 0 1.07.237 1.497.537.485.341 1.036.728 2.103.728 1.067 0 1.617-.387 2.103-.728.427-.3.764-.537 1.497-.537.733 0 1.07.237 1.497.537.485.341 1.036.728 2.103.728v-1.054c-.733 0-1.07-.237-1.497-.537-.486-.342-1.036-.729-2.103-.729zm0-6.221c-1.067 0-1.618.387-2.103.729-.427.3-.764.537-1.497.537-.733 0-1.07-.238-1.497-.537-.486-.342-1.036-.73-2.103-.73-1.067 0-1.618.388-2.103.73-.427.3-.764.537-1.497.537-.733 0-1.07-.238-1.497-.537-.486-.342-1.036-.73-2.103-.73v1.056c.733 0 1.07.237 1.497.536.486.342 1.036.73 2.103.73 1.067 0 1.617-.388 2.103-.73.427-.3.764-.536 1.497-.536.733 0 1.07.237 1.497.536.485.342 1.036.73 2.103.73 1.067 0 1.617-.388 2.103-.73.427-.3.764-.536 1.497-.536.733 0 1.07.237 1.497.536.485.342 1.036.73 2.103.73V18.54c-.733 0-1.07-.238-1.497-.537-.486-.342-1.036-.73-2.103-.73zm0 3.111c-1.067 0-1.618.387-2.103.728-.427.3-.764.537-1.497.537-.733 0-1.07-.237-1.497-.537-.486-.341-1.036-.728-2.103-.728-1.067 0-1.618.387-2.103.728-.427.3-.764.537-1.497.537-.733 0-1.07-.237-1.497-.537-.486-.341-1.036-.728-2.103-.728v1.054c.733 0 1.07.237 1.497.537.486.342 1.036.73 2.103.73 1.067 0 1.617-.388 2.103-.73.427-.3.764-.537 1.497-.537.733 0 1.07.237 1.497.537.485.342 1.036.73 2.103.73 1.067 0 1.617-.388 2.103-.73.427-.3.764-.537 1.497-.537.733 0 1.07.237 1.497.537.485.342 1.036.73 2.103.73V21.65c-.733 0-1.07-.237-1.497-.537-.486-.341-1.036-.728-2.103-.728zm2.103-5.493c-.486-.342-1.036-.729-2.103-.729-1.067 0-1.618.387-2.103.729-.427.3-.764.537-1.497.537-.733 0-1.07-.237-1.497-.537-.486-.342-1.036-.729-2.103-.729-1.067 0-1.618.387-2.103.729-.427.3-.764.537-1.497.537-.733 0-1.07-.237-1.497-.537-.486-.342-1.036-.729-2.103-.729v1.055c.733 0 1.07.237 1.497.537.486.341 1.036.728 2.103.728 1.067 0 1.617-.387 2.103-.728.427-.3.764-.537 1.497-.537.733 0 1.07.237 1.497.537.485.341 1.036.728 2.103.728 1.067 0 1.617-.387 2.103-.728.427-.3.764-.537 1.497-.537.733 0 1.07.237 1.497.537.485.341 1.036.728 2.103.728V15.43c-.733 0-1.07-.237-1.497-.537z"/></g><defs><clipPath id="clip0"><path fill="#fff" transform="translate(11 11)" d="M0 0h18v18H0z"/></clipPath></defs></svg>