<svg width="101" height="101" fill="none" xmlns="http://www.w3.org/2000/svg"><path d="M44 3.753a13 13 0 0113 0l30.734 17.744a13 13 0 016.5 11.259v35.488a13 13 0 01-6.5 11.259L57 97.247a13 13 0 01-13 0L13.266 79.503a13 13 0 01-6.5-11.259V32.756a13 13 0 016.5-11.259L44 3.753z" fill="#FFE600" fill-opacity=".11"/><g filter="url(#filter0_i)"><path d="M44 13.585a13 13 0 0113 0l22.22 12.828a13 13 0 016.5 11.259v25.657a13 13 0 01-6.5 11.258L57 87.415a13 13 0 01-13 0L21.78 74.587a13 13 0 01-6.5-11.259V37.671a13 13 0 016.5-11.258L44 13.585z" fill="#FFE600"/></g><path d="M51 67a15.895 15.895 0 01-11.314-4.686A15.895 15.895 0 0135 51c0-4.274 1.664-8.292 4.686-11.314A15.895 15.895 0 0151 35c4.274 0 8.292 1.664 11.314 4.686A15.895 15.895 0 0167 51c0 4.274-1.664 8.292-4.686 11.314A15.895 15.895 0 0151 67zm0-30c-7.72 0-14 6.28-14 14s6.28 14 14 14 14-6.28 14-14-6.28-14-14-14z" fill="#000B24"/><path d="M51 50a2.503 2.503 0 01-2.5-2.5c0-1.379 1.121-2.5 2.5-2.5s2.5 1.121 2.5 2.5a1 1 0 002 0 4.507 4.507 0 00-3.5-4.387V42a1 1 0 10-2 0v1.113a4.507 4.507 0 00-3.5 4.387c0 2.481 2.019 4.5 4.5 4.5 1.379 0 2.5 1.121 2.5 2.5S52.379 57 51 57a2.503 2.503 0 01-2.5-2.5 1 1 0 00-2 0 4.507 4.507 0 003.5 4.387V60a1 1 0 002 0v-1.113a4.507 4.507 0 003.5-4.387c0-2.481-2.019-4.5-4.5-4.5z" fill="#000B24"/><defs><filter id="filter0_i" x="15.28" y="11.843" width="70.439" height="77.314" filterUnits="userSpaceOnUse" color-interpolation-filters="sRGB"><feFlood flood-opacity="0" result="BackgroundImageFix"/><feBlend in="SourceGraphic" in2="BackgroundImageFix" result="shape"/><feColorMatrix in="SourceAlpha" values="0 0 0 0 0 0 0 0 0 0 0 0 0 0 0 0 0 0 127 0" result="hardAlpha"/><feOffset/><feGaussianBlur stdDeviation="13"/><feComposite in2="hardAlpha" operator="arithmetic" k2="-1" k3="1"/><feColorMatrix values="0 0 0 0 1 0 0 0 0 1 0 0 0 0 1 0 0 0 0.46 0"/><feBlend in2="shape" result="effect1_innerShadow"/></filter></defs></svg>