<svg width="15" height="23" fill="none" xmlns="http://www.w3.org/2000/svg"><path d="M6.7 22.5v-2.25c-2.483-.183-4.425-1.05-5.825-2.6L2.5 15.4c1.15 1.233 2.55 1.975 4.2 2.225V12.8a22.99 22.99 0 01-1.95-.575 9.963 9.963 0 01-1.625-.825c-.567-.367-1-.833-1.3-1.4-.283-.583-.425-1.267-.425-2.05 0-1.283.483-2.375 1.45-3.275.967-.9 2.25-1.417 3.85-1.55V.8h2v2.35c2.017.217 3.692.967 5.025 2.25L12.05 7.575c-.917-.9-2.033-1.483-3.35-1.75v4.3c.617.167 1.142.325 1.575.475.433.15.908.367 1.425.65.533.267.958.567 1.275.9.317.317.583.733.8 1.25.217.517.325 1.1.325 1.75 0 1.367-.458 2.525-1.375 3.475-.9.933-2.242 1.475-4.025 1.625v2.25h-2zm3.825-5.675c.4-.417.6-.883.6-1.4 0-.517-.208-.933-.625-1.25-.417-.333-1.017-.617-1.8-.85v4.325c.817-.133 1.425-.408 1.825-.825zM4.4 7.75c0 .8.767 1.417 2.3 1.85V5.7c-.717.067-1.283.292-1.7.675-.4.367-.6.825-.6 1.375z" fill="#696CA2"/></svg>