<svg width="39" height="39" fill="none" xmlns="http://www.w3.org/2000/svg"><path d="M19.5.361C8.748.361 0 9.11 0 19.861c0 2.393.429 4.732 1.275 6.95a.722.722 0 101.35-.516 17.986 17.986 0 01-1.18-6.434c0-9.956 8.099-18.056 18.055-18.056s18.056 8.1 18.056 18.056a.722.722 0 001.444 0C39 9.11 30.252.361 19.5.361z" fill="url(#paint0_linear)" fill-opacity=".75"/><path d="M19.51 3.972c-4.335 0-8.825 2.098-12.005 5.61-2.816 3.112-4.234 6.885-3.888 10.351l.08.811c.565 5.619.564 5.619-.495 7.715-.074.146-.153.301-.236.468a.722.722 0 001.291.646l.233-.463c1.25-2.472 1.239-2.585.643-8.51l-.08-.81c-.307-3.062.976-6.429 3.518-9.238 2.91-3.216 7.006-5.135 10.94-5.135 7.964 0 14.454 6.48 14.454 14.444v3.611a.722.722 0 001.444 0v-3.61c0-8.762-7.138-15.89-15.899-15.89z" fill="url(#paint1_linear)" fill-opacity=".75"/><path d="M24.02 8.442a12.217 12.217 0 00-4.52-.859c-3.292 0-6.375 1.26-8.68 3.55-2.32 2.304-3.598 5.404-3.598 8.728 0 1.844.17 3.453.32 4.872.387 3.665.6 5.683-2.165 7.527a.722.722 0 10.801 1.202c3.493-2.328 3.187-5.22 2.8-8.88-.146-1.385-.312-2.953-.312-4.721 0-6.075 4.759-10.833 10.834-10.833 1.378 0 2.72.254 3.988.757a.723.723 0 00.532-1.343z" fill="url(#paint2_linear)" fill-opacity=".75"/><path d="M31.778 19.833a12.313 12.313 0 00-5.139-9.962.722.722 0 10-.84 1.175 10.866 10.866 0 014.536 8.87c.008.093.697 9.34-.703 14.937a.723.723 0 001.402.35c1.431-5.725.794-14.696.744-15.37z" fill="url(#paint3_linear)" fill-opacity=".75"/><path d="M27.644 16.889a8.697 8.697 0 00-8.144-5.695c-4.779 0-8.667 3.888-8.667 8.667 0 .03.002.06.006.09.007.056.702 5.738.002 10.641a.722.722 0 101.43.204c.701-4.91.08-10.377.007-10.978.023-3.963 3.254-7.18 7.222-7.18a7.247 7.247 0 016.787 4.746.723.723 0 001.357-.495z" fill="url(#paint4_linear)" fill-opacity=".75"/><path d="M19.51 14.806a5.065 5.065 0 00-5.06 5.055c0 .028-.002.056.002.084.014.12 1.368 12.06-2.039 16.83a.722.722 0 101.175.84c3.655-5.119 2.41-16.843 2.3-17.794a3.624 3.624 0 013.622-3.571 3.624 3.624 0 013.621 3.61v5.056a.722.722 0 001.445 0v-5.055c0-2.788-2.279-5.056-5.066-5.056z" fill="url(#paint5_linear)" fill-opacity=".75"/><path d="M34.734 25.223a.725.725 0 00-.782.657l-.441 5.036a.722.722 0 101.439.126l.44-5.036a.722.722 0 00-.656-.783z" fill="url(#paint6_linear)" fill-opacity=".75"/><path d="M11.234 32.982a.722.722 0 00-1.001.2L8.788 35.35a.722.722 0 001.202.802l1.444-2.167a.722.722 0 00-.2-1.002z" fill="url(#paint7_linear)" fill-opacity=".75"/><path d="M28.15 19.71a.722.722 0 10-1.412.302c.021.099 2.074 9.944-1.384 16.86a.723.723 0 001.292.645c3.682-7.364 1.595-17.384 1.505-17.807z" fill="url(#paint8_linear)" fill-opacity=".75"/><path d="M20.2 18.964a.723.723 0 00-1.4.35c.013.056 1.369 5.646-.708 11.874a.722.722 0 001.37.457c2.209-6.623.8-12.437.739-12.681z" fill="url(#paint9_linear)" fill-opacity=".75"/><path d="M18.324 33.635a.722.722 0 00-.939.402l-1.445 3.611a.722.722 0 101.342.537l1.444-3.611a.722.722 0 00-.402-.94z" fill="url(#paint10_linear)" fill-opacity=".75"/><path d="M23.834 27.777a.735.735 0 00-.723.735c0 .043-.032 4.267-2.108 9.113a.726.726 0 00.663 1.012.72.72 0 00.664-.437c2.2-5.133 2.226-9.504 2.226-9.687a.734.734 0 00-.722-.736z" fill="url(#paint11_linear)" fill-opacity=".75"/><defs><linearGradient id="paint0_linear" x1="19.5" y1=".361" x2="19.5" y2="27.275" gradientUnits="userSpaceOnUse"><stop stop-color="#000C25"/><stop offset=".484" stop-color="#3E3E3E" stop-opacity=".76"/><stop offset="1" stop-color="#000C25"/></linearGradient><linearGradient id="paint1_linear" x1="19.149" y1="3.972" x2="19.149" y2="29.972" gradientUnits="userSpaceOnUse"><stop stop-color="#000C25"/><stop offset=".484" stop-color="#3E3E3E" stop-opacity=".76"/><stop offset="1" stop-color="#000C25"/></linearGradient><linearGradient id="paint2_linear" x1="14.766" y1="7.583" x2="14.766" y2="33.583" gradientUnits="userSpaceOnUse"><stop stop-color="#000C25"/><stop offset=".484" stop-color="#3E3E3E" stop-opacity=".76"/><stop offset="1" stop-color="#000C25"/></linearGradient><linearGradient id="paint3_linear" x1="28.73" y1="9.736" x2="28.73" y2="35.75" gradientUnits="userSpaceOnUse"><stop stop-color="#000C25"/><stop offset=".484" stop-color="#3E3E3E" stop-opacity=".76"/><stop offset="1" stop-color="#000C25"/></linearGradient><linearGradient id="paint4_linear" x1="19.26" y1="11.194" x2="19.26" y2="31.417" gradientUnits="userSpaceOnUse"><stop stop-color="#000C25"/><stop offset=".484" stop-color="#3E3E3E" stop-opacity=".76"/><stop offset="1" stop-color="#000C25"/></linearGradient><linearGradient id="paint5_linear" x1="18.427" y1="14.806" x2="18.427" y2="37.916" gradientUnits="userSpaceOnUse"><stop stop-color="#000C25"/><stop offset=".484" stop-color="#3E3E3E" stop-opacity=".76"/><stop offset="1" stop-color="#000C25"/></linearGradient><linearGradient id="paint6_linear" x1="34.451" y1="25.221" x2="34.451" y2="31.701" gradientUnits="userSpaceOnUse"><stop stop-color="#000C25"/><stop offset=".484" stop-color="#3E3E3E" stop-opacity=".76"/><stop offset="1" stop-color="#000C25"/></linearGradient><linearGradient id="paint7_linear" x1="10.111" y1="32.861" x2="10.111" y2="36.472" gradientUnits="userSpaceOnUse"><stop stop-color="#000C25"/><stop offset=".484" stop-color="#3E3E3E" stop-opacity=".76"/><stop offset="1" stop-color="#000C25"/></linearGradient><linearGradient id="paint8_linear" x1="27.049" y1="19.139" x2="27.049" y2="37.917" gradientUnits="userSpaceOnUse"><stop stop-color="#000C25"/><stop offset=".484" stop-color="#3E3E3E" stop-opacity=".76"/><stop offset="1" stop-color="#000C25"/></linearGradient><linearGradient id="paint9_linear" x1="19.377" y1="18.417" x2="19.377" y2="32.139" gradientUnits="userSpaceOnUse"><stop stop-color="#000C25"/><stop offset=".484" stop-color="#3E3E3E" stop-opacity=".76"/><stop offset="1" stop-color="#000C25"/></linearGradient><linearGradient id="paint10_linear" x1="17.333" y1="33.583" x2="17.333" y2="38.639" gradientUnits="userSpaceOnUse"><stop stop-color="#000C25"/><stop offset=".484" stop-color="#3E3E3E" stop-opacity=".76"/><stop offset="1" stop-color="#000C25"/></linearGradient><linearGradient id="paint11_linear" x1="22.75" y1="27.777" x2="22.75" y2="38.637" gradientUnits="userSpaceOnUse"><stop stop-color="#000C25"/><stop offset=".484" stop-color="#3E3E3E" stop-opacity=".76"/><stop offset="1" stop-color="#000C25"/></linearGradient></defs></svg>