<svg width="1920" height="1133" fill="none" xmlns="http://www.w3.org/2000/svg"><path d="M998.08-77L-61 981.33v17.646L1016.16-77h-18.08zm54.66 0L-61 1035.95v17.64L1070.39-77h-17.65zm-108.897 0L-61 927.132v17.646L961.502-77h-17.659zM834.53-77L-61 817.896v17.646L852.609-77H834.53zm54.657 0L-61 872.514v17.646L906.845-77h-17.658zm-163.55 0L-61 709.08v17.646L743.295-77h-17.658zm381.753 0L-61 1090.57v17.64L1125.05-77h-17.66zm-327.096 0L-61 763.698v17.646L797.952-77h-17.658zm653.776 0L223.215 1133h17.658L1451.73-77h-17.66zm-54.23 0L168.979 1133h17.658L1397.49-77h-17.65zm108.89 0L277.872 1133h17.658L1506.39-77h-17.66zm-272.44 0L5.429 1133h17.658L1233.94-77h-17.65zm108.89 0L114.322 1133h18.079L1343.26-77h-18.08zm-163.55 0L-49.228 1133h17.659L1179.29-77h-17.66zm108.89 0L59.665 1133h18.079L1288.6-77h-18.08zm-763.09 0L-61 491.028v17.646L525.509-77H507.43zm163.55 0L-61 654.462v17.646L689.059-77H670.98zm-490.229 0L-61 164.58v17.646L198.409-77h-17.658zm54.236 0L-61 218.778v17.646L253.066-77h-18.079zm-272.443 0L-61-53.472v17.646L-19.797-77h-17.659zm327.1 0L-61 273.396v17.646L307.302-77h-17.658zM71.437-77L-61 55.344V72.99L89.516-77H71.437zm-54.236 0L-61 1.146v17.646L34.86-77H17.2zm108.893 0L-61 109.962v17.646L143.753-77h-17.659zm435.993 0L-61 545.646v17.646L580.166-77h-18.079zm54.657 0L-61 600.264v17.646L634.402-77h-17.658zm926.646 0L332.529 1133h17.658L1561.04-77h-17.65zM453.194-77L-61 436.83v17.646L470.852-77h-17.658zM343.88-77L-61 327.594v17.646L361.959-77H343.88zm54.657 0L-61 382.212v17.646L416.616-77h-18.079zm987.183 1210L2058 461.198v-17.646L1368.06 1133h17.66zm163.55 0L2058 624.632v-17.646L1531.61 1133h17.66zm-54.23 0L2058 570.434v-17.646L1476.96 1133h18.08zm108.89 0L2058 679.25v-17.646L1586.27 1133h17.66zm-6.31-1210L386.765 1133h17.658L1615.28-77h-17.66zm-320.79 1210L2058 352.382v-17.646L1259.17 1133h17.66zm54.66 0L2058 407v-17.646L1313.41 1133h18.08zm108.89 0L2058 515.816V498.17L1422.72 1133h17.66zm218.21 0L2058 733.868v-17.646L1640.51 1133h18.08zm272.44 0L2058 1006.12v-17.648L1912.95 1133h18.08zm54.65 0l72.32-72.26v-17.65l-90.39 89.91h18.07zm54.24 0l18.08-18.07v-17.64l-35.74 35.71h17.66zm-217.78 0L2058 897.302v-17.646L1804.06 1133h18.08zm54.23 0L2058 951.5v-17.646L1858.71 1133h17.66zm-108.89 0L2058 842.684v-17.646L1749.82 1133h17.66zm-54.66 0L2058 788.066V770.42L1695.16 1133h17.66zm-490.65 0L2058 297.764v-17.646L1204.51 1133h17.66zM1815.83-77L604.971 1133h17.659L1833.49-77h-17.66zm54.66 0L659.628 1133h17.659L1888.14-77h-17.65zm54.23 0L713.865 1133h17.658L1942.38-77h-17.66zm-272.44 0L441.422 1133h17.658L1669.94-77h-17.66zm327.1 0L768.521 1133h17.659L1997.04-77h-17.66zm-218.21 0L550.315 1133h17.658L1778.83-77h-17.66zm-54.23 0L496.078 1133h17.659L1724.59-77h-17.65zm-593.66 1210L2058 188.948v-17.646L1095.62 1133h17.66zm-54.24 0L2058 134.75v-17.646L1040.96 1133h18.08zm975-1210L823.178 1133h17.658L2051.69-77h-17.65zM1004.39 1133L2058 80.132V62.486L986.307 1133h18.083zm163.55 0L2058 243.566V225.5L1149.86 1133h18.08zm-290.526 0h17.659L2058-28.684V-46.75L877.414 1133zm72.315 0L2058 25.514V7.868L932.071 1133h17.658z" fill="url(#paint0_radial)"/><defs><radialGradient id="paint0_radial" cx="0" cy="0" r="1" gradientUnits="userSpaceOnUse" gradientTransform="matrix(1797.37 0 0 1796.1 987.773 75.44)"><stop stop-color="#fff"/><stop offset=".192" stop-color="#F9F9FA"/><stop offset=".455" stop-color="#E7E9EB"/><stop offset=".76" stop-color="#CACFD4"/><stop offset="1" stop-color="#AEB6BD"/></radialGradient></defs></svg>