<svg width="313" height="100" fill="none" xmlns="http://www.w3.org/2000/svg"><path d="M55.397.013C49.328.34 44.8 1.083 40.151 2.506c-6.198 1.905-10.847 4.104-16.055 7.6-2.59 1.739-4.44 3.223-7.018 5.622a56.915 56.915 0 00-9.117 10.916c-1.366 2.133-1.642 2.62-2.887 5.08-1.116 2.193-2.556 5.662-3.135 7.52a154.1 154.1 0 01-.612 1.973 27.876 27.876 0 00-.431 1.477c-.202.789-.929 4.278-.895 4.305.014.013.189-.615.384-1.39.538-2.093.834-3.102 1.285-4.366.222-.621.558-1.564.753-2.099.39-1.096 1.945-4.592 2.557-5.742a68.011 68.011 0 013.58-5.99c3.129-4.685 6.83-8.756 11.277-12.44 2.61-2.152 6.157-4.518 9.723-6.476 3.203-1.765 7.26-3.383 11.674-4.673 4.124-1.196 8.935-1.912 14.264-2.106 3.654-.133 8.727.274 12.785 1.037 5.315.996 11.822 3.308 16.316 5.802 3.365 1.871 6.924 4.231 9.306 6.176 1.796 1.464 4.104 3.59 5.416 4.994 3.519 3.75 6.231 7.42 8.64 11.698 1.198 2.125 1.386 2.493 2.362 4.645.915 2.032 1.056 2.387 1.924 4.853.619 1.765.929 2.795 1.426 4.793.135.542.263.976.276.956.034-.033-.525-2.874-.726-3.683-.128-.508-.915-3.108-1.353-4.445-.114-.348-.592-1.585-1.07-2.748-.895-2.199-2.496-5.508-3.404-7.025-3.008-5.04-6.433-9.312-10.504-13.095-3.458-3.222-6.304-5.335-10.476-7.781-3.768-2.213-7.69-3.897-12.59-5.408C69.677 1.21 65.45.474 60.142.106c-1.083-.073-4.01-.133-4.744-.093z" fill="#fff"/><path d="M65.591 17.292c-.713.18-1.581.475-3.095 1.03-3.236 1.196-4.266 1.45-6.755 1.671-1.313.12-3.997.548-5.39.862-3.849.876-7.718 2.42-11.566 4.613-7.106 4.05-13.06 10.494-16.465 17.834-2.396 5.14-3.593 10.214-3.768 15.89-.06 2.072-.06 2.265.108 4.204.275 3.262.88 6.337 1.776 9.017 1.669 5 4.098 9.352 7.421 13.27.99 1.162 3.492 3.649 4.596 4.558 1.796 1.484 3.775 2.888 5.248 3.73 2.18 1.243 4.01 2.146 5.652 2.787 2.867 1.124 6.291 2.02 9.117 2.374 1.858.233 2.564.274 5.114.267 2.927 0 4.226-.107 6.83-.535 6.553-1.09 13.046-4.144 18.248-8.57.915-.775 2.832-2.68 3.694-3.656 4.138-4.726 6.964-10.194 8.269-16.016.901-3.99 1.103-7.6.68-11.892-.142-1.43-.243-2.032-.606-3.743-.384-1.792-.511-2.266-1.083-3.938-1.03-3.021-2.315-5.615-4.226-8.529-.45-.689-1.426-1.945-2.456-3.169-1.002-1.196-3.236-3.375-4.488-4.378l-1.144-.916.875.816c2.24 2.099 3.755 3.87 5.558 6.544 1.554 2.293 2.853 4.92 3.936 7.955.121.347.437 1.444.693 2.44.397 1.537.511 2.092.747 3.77l.276 1.965.013 2.446c.007 1.611-.02 2.734-.074 3.282-.37 3.557-1.083 6.538-2.28 9.56-1.885 4.752-5.182 9.338-9.239 12.874-3.842 3.349-8.868 5.936-13.942 7.18-5.369 1.31-11.64 1.202-16.875-.295-2.53-.722-5.275-1.892-7.334-3.115-1.487-.882-3.236-2.092-4.273-2.948-5.645-4.666-9.218-10.455-10.866-17.607-.323-1.41-.532-3.262-.62-5.421-.066-1.738-.06-2.006.075-3.496.148-1.591.175-1.798.504-3.55.687-3.656 2.578-8.048 4.831-11.23 2.813-3.964 6.615-7.26 10.753-9.325 2.738-1.363 5.093-2.206 7.576-2.7 1.386-.274 4.024-.609 4.831-.609 1.063 0 2.369.281 4.953 1.07 2.186.662 3.095.916 3.97 1.096l.773.16.074-.28c.256-.976.935-1.504 1.918-1.51.982 0 1.608.514 1.917 1.583.034.134.58-.087 2.456-.982 3.957-1.892 5.43-2.48 6.991-2.774 1.252-.241 1.494-.308 1.87-.475.586-.28 1.232-.95 1.562-1.638a6.92 6.92 0 00.37-.962c.404-1.558.229-3.503-.417-4.726-.592-1.13-1.427-1.685-2.88-1.925-1.89-.308-3.122-.782-7.233-2.741a60.845 60.845 0 00-2.261-1.043l-.417-.154-.074.281a2.052 2.052 0 01-1.191 1.357c-.384.16-1.063.147-1.474-.033-.605-.268-1.07-.85-1.15-1.43-.027-.175-.06-.315-.088-.308-.02 0-.269.06-.545.133z" fill="#fff"/><path d="M58.93 49.532a11.922 11.922 0 00-5.181 2.032c-.814.575-2.126 1.872-2.705 2.687-.848 1.184-1.534 2.761-1.884 4.312-.135.588-.148.862-.148 2.24 0 1.376.013 1.65.148 2.239.35 1.55 1.036 3.128 1.884 4.311.579.816 1.89 2.113 2.705 2.687a11.647 11.647 0 009.938 1.658c3.58-1.036 6.48-3.803 7.65-7.286.458-1.364.539-1.925.539-3.61 0-1.684-.081-2.246-.539-3.61-1.312-3.923-4.777-6.858-8.942-7.593-.841-.147-2.664-.18-3.465-.067zm95.794 8.78c-2.531 0-4.628-.728-6.292-2.184-1.664-1.456-2.496-3.354-2.496-5.694 0-2.808.979-5.183 2.938-7.124 1.959-1.959 4.394-2.938 7.306-2.938 2.513 0 4.602.728 6.266 2.184 1.681 1.439 2.522 3.32 2.522 5.642 0 2.825-.979 5.217-2.938 7.176-1.959 1.959-4.394 2.938-7.306 2.938zm.26-3.952c1.508 0 2.773-.563 3.796-1.69 1.023-1.144 1.534-2.522 1.534-4.134 0-1.248-.407-2.262-1.222-3.042-.815-.78-1.872-1.17-3.172-1.17-1.508 0-2.773.572-3.796 1.716-1.023 1.127-1.534 2.496-1.534 4.108 0 1.248.407 2.262 1.222 3.042.815.78 1.872 1.17 3.172 1.17zm19.438 3.952c-2.582 0-4.558-.555-5.928-1.664-1.352-1.127-2.028-2.635-2.028-4.524 0-.33.044-.71.13-1.144l2.288-10.322h4.55l-2.262 10.218c-.052.121-.078.364-.078.728.018.78.312 1.447.884 2.002.59.537 1.404.806 2.444.806 2.184 0 3.536-1.179 4.056-3.536l2.262-10.218h4.524l-2.262 10.296c-.52 2.305-1.456 4.108-2.808 5.408-1.334 1.3-3.258 1.95-5.772 1.95zM199.356 58h-4.94l-1.612-5.824h-2.496L189.034 58h-4.472l3.822-17.342h7.904c1.543 0 2.86.468 3.952 1.404 1.11.936 1.664 2.158 1.664 3.666s-.442 2.825-1.326 3.952c-.884 1.11-1.984 1.837-3.302 2.184l2.08 6.136zm-4.706-9.724h.078c.763 0 1.37-.182 1.82-.546.468-.381.702-.893.702-1.534 0-.468-.182-.858-.546-1.17a1.932 1.932 0 00-1.3-.468h-3.406l-.832 3.718h3.484zm16.67 10.036c-2.531 0-4.628-.728-6.292-2.184-1.664-1.456-2.496-3.354-2.496-5.694 0-2.808.979-5.183 2.938-7.124 1.958-1.959 4.394-2.938 7.306-2.938 2.513 0 4.602.728 6.266 2.184 1.681 1.439 2.522 3.32 2.522 5.642 0 2.825-.98 5.217-2.938 7.176-1.959 1.959-4.394 2.938-7.306 2.938zm.26-3.952c1.508 0 2.773-.563 3.796-1.69 1.022-1.144 1.534-2.522 1.534-4.134 0-1.248-.408-2.262-1.222-3.042-.815-.78-1.872-1.17-3.172-1.17-1.508 0-2.774.572-3.796 1.716-1.023 1.127-1.534 2.496-1.534 4.108 0 1.248.407 2.262 1.222 3.042.814.78 1.872 1.17 3.172 1.17zM231.824 58h-10.166l3.822-17.342h9.048c1.543 0 2.739.416 3.588 1.248.849.832 1.274 1.829 1.274 2.99 0 1.127-.399 2.132-1.196 3.016-.78.884-1.69 1.37-2.73 1.456a3.04 3.04 0 011.82 1.3 3.85 3.85 0 01.65 2.158c0 .624-.113 1.23-.338 1.82a5.328 5.328 0 01-1.04 1.664c-.451.503-1.083.91-1.898 1.222-.815.312-1.759.468-2.834.468zm.962-10.686c.641 0 1.101-.156 1.378-.468.295-.33.442-.72.442-1.17 0-.364-.13-.659-.39-.884-.243-.243-.563-.364-.962-.364h-4.108l-.65 2.886h4.29zm-1.352 6.916c.624 0 1.118-.165 1.482-.494.364-.347.546-.771.546-1.274 0-.399-.13-.72-.39-.962-.26-.26-.607-.39-1.04-.39h-4.368l-.702 3.12h4.472zm17.464 4.082c-2.531 0-4.628-.728-6.292-2.184-1.664-1.456-2.496-3.354-2.496-5.694 0-2.808.979-5.183 2.938-7.124 1.958-1.959 4.394-2.938 7.306-2.938 2.513 0 4.602.728 6.266 2.184 1.681 1.439 2.522 3.32 2.522 5.642 0 2.825-.98 5.217-2.938 7.176-1.959 1.959-4.394 2.938-7.306 2.938zm.26-3.952c1.508 0 2.773-.563 3.796-1.69 1.022-1.144 1.534-2.522 1.534-4.134 0-1.248-.408-2.262-1.222-3.042-.815-.78-1.872-1.17-3.172-1.17-1.508 0-2.774.572-3.796 1.716-1.023 1.127-1.534 2.496-1.534 4.108 0 1.248.407 2.262 1.222 3.042.814.78 1.872 1.17 3.172 1.17zM274.03 58h-4.94l-1.612-5.824h-2.496L263.708 58h-4.472l3.822-17.342h7.904c1.543 0 2.86.468 3.952 1.404 1.109.936 1.664 2.158 1.664 3.666s-.442 2.825-1.326 3.952c-.884 1.11-1.985 1.837-3.302 2.184L274.03 58zm-4.706-9.724h.078c.763 0 1.369-.182 1.82-.546.468-.381.702-.893.702-1.534 0-.468-.182-.858-.546-1.17a1.932 1.932 0 00-1.3-.468h-3.406l-.832 3.718h3.484zm16.67 10.036c-2.531 0-4.628-.728-6.292-2.184-1.664-1.456-2.496-3.354-2.496-5.694 0-2.808.979-5.183 2.938-7.124 1.958-1.959 4.394-2.938 7.306-2.938 2.513 0 4.602.728 6.266 2.184 1.681 1.439 2.522 3.32 2.522 5.642 0 2.825-.98 5.217-2.938 7.176-1.959 1.959-4.394 2.938-7.306 2.938zm.26-3.952c1.508 0 2.773-.563 3.796-1.69 1.022-1.144 1.534-2.522 1.534-4.134 0-1.248-.408-2.262-1.222-3.042-.815-.78-1.872-1.17-3.172-1.17-1.508 0-2.774.572-3.796 1.716-1.023 1.127-1.534 2.496-1.534 4.108 0 1.248.407 2.262 1.222 3.042.814.78 1.872 1.17 3.172 1.17zm17.93 3.952c-1.751 0-3.363-.295-4.836-.884-1.474-.607-2.618-1.413-3.432-2.418l2.73-3.224c.606.797 1.447 1.447 2.522 1.95a8.118 8.118 0 003.38.728c.658 0 1.152-.139 1.482-.416.346-.277.52-.598.52-.962 0-.295-.208-.563-.624-.806-.416-.26-.936-.485-1.56-.676a26.763 26.763 0 01-2.002-.728 18.35 18.35 0 01-2.028-.962 4.906 4.906 0 01-1.534-1.456c-.416-.624-.624-1.335-.624-2.132 0-1.577.632-2.955 1.898-4.134 1.282-1.196 3.016-1.794 5.2-1.794 1.421 0 2.764.251 4.03.754 1.282.485 2.357 1.187 3.224 2.106l-2.73 3.12c-.642-.693-1.448-1.222-2.418-1.586-.954-.381-1.89-.572-2.808-.572-.503 0-.91.121-1.222.364-.312.225-.468.511-.468.858 0 .33.286.633.858.91.589.277 1.291.555 2.106.832.814.277 1.629.607 2.444.988a5.602 5.602 0 012.106 1.586c.589.693.884 1.508.884 2.444 0 1.75-.65 3.207-1.95 4.368-1.283 1.161-2.999 1.742-5.148 1.742z" fill="#fff"/></svg>