<svg width="40" height="40" fill="none" xmlns="http://www.w3.org/2000/svg"><circle cx="20" cy="20" r="20" fill="#6C27FF"/><g clip-path="url(#clip0)" fill="#fff"><path d="M23.404 13.268a.82.82 0 00-1.103.36l-6.102 12a.82.82 0 101.463.744l6.102-12a.82.82 0 00-.36-1.104zm-4.381 3.952a3.115 3.115 0 00-3.111-3.112A3.115 3.115 0 0012.8 17.22a3.115 3.115 0 003.111 3.111 3.115 3.115 0 003.112-3.111zm-3.111 1.47c-.811 0-1.471-.66-1.471-1.47a1.472 1.472 0 012.941 0c0 .81-.66 1.47-1.47 1.47zm8.177.979a3.115 3.115 0 00-3.112 3.11 3.115 3.115 0 003.112 3.112A3.115 3.115 0 0027.2 22.78a3.115 3.115 0 00-3.111-3.111zm0 4.581c-.811 0-1.471-.66-1.471-1.47a1.472 1.472 0 012.941 0c0 .81-.66 1.47-1.47 1.47z"/></g><defs><clipPath id="clip0"><path fill="#fff" transform="translate(12.8 12.8)" d="M0 0h14.4v14.4H0z"/></clipPath></defs></svg>