<svg width="40" height="40" fill="none" xmlns="http://www.w3.org/2000/svg"><circle cx="20" cy="20" r="20" fill="#6C27FF"/><g clip-path="url(#clip0)" fill="#fff"><path d="M27.601 18.091a1.18 1.18 0 00.3-1.217 1.18 1.18 0 00-.958-.807l-3.938-.573a.238.238 0 01-.179-.13l-1.761-3.569a1.18 1.18 0 00-1.065-.66 1.18 1.18 0 00-1.064.662l-1.762 3.568a.238.238 0 01-.178.13l-3.939.573a1.18 1.18 0 00-.958.807c-.14.433-.026.9.3 1.217l2.85 2.778a.237.237 0 01.068.21l-.672 3.923a1.18 1.18 0 00.472 1.161 1.18 1.18 0 001.25.09l3.523-1.852a.237.237 0 01.22 0l3.523 1.852a1.182 1.182 0 001.25-.09 1.18 1.18 0 00.473-1.161l-.673-3.923a.237.237 0 01.068-.21l2.85-2.778zm-3.854 3.149l.673 3.923a.231.231 0 01-.095.232.231.231 0 01-.25.018l-3.522-1.852a1.187 1.187 0 00-1.105 0l-3.523 1.852a.231.231 0 01-.25-.018.231.231 0 01-.094-.232l.672-3.923a1.187 1.187 0 00-.34-1.05l-2.85-2.779a.231.231 0 01-.06-.243.231.231 0 01.19-.162l3.94-.572c.386-.056.72-.299.893-.65l1.761-3.568a.231.231 0 01.213-.133.23.23 0 01.213.133l1.761 3.569c.173.35.508.593.894.65l3.939.571a.23.23 0 01.191.162.231.231 0 01-.06.243l-2.85 2.778c-.28.273-.407.666-.341 1.051zm1.8-9.445a.475.475 0 00-.663.105l-.504.694a.475.475 0 00.768.558l.504-.693a.475.475 0 00-.105-.664zm-9.929.797l-.504-.694a.475.475 0 00-.768.558l.504.694a.474.474 0 10.768-.558zm-2.876 9.195a.475.475 0 00-.598-.305l-.816.265a.475.475 0 10.294.904l.815-.265a.475.475 0 00.305-.599zM20 27.059a.475.475 0 00-.475.474v.858a.475.475 0 10.95 0v-.858A.475.475 0 0020 27.06zm8.672-5.312l-.816-.265a.475.475 0 00-.293.904l.815.265a.472.472 0 00.599-.305.475.475 0 00-.305-.599z"/></g><defs><clipPath id="clip0"><path fill="#fff" transform="translate(11 11)" d="M0 0h18v18H0z"/></clipPath></defs></svg>