<svg width="101" height="101" fill="none" xmlns="http://www.w3.org/2000/svg"><path d="M44 3.753a13 13 0 0113 0l30.734 17.744a13 13 0 016.5 11.259v35.488a13 13 0 01-6.5 11.259L57 97.247a13 13 0 01-13 0L13.266 79.503a13 13 0 01-6.5-11.259V32.756a13 13 0 016.5-11.259L44 3.753z" fill="#FFE600" fill-opacity=".11"/><g filter="url(#filter0_i)"><path d="M44.168 13.753a13 13 0 0113 0l22.22 12.828a13 13 0 016.5 11.259v25.657a13 13 0 01-6.5 11.258l-22.22 12.829a13 13 0 01-13 0l-22.22-12.829a13 13 0 01-6.5-11.258V37.84a13 13 0 016.5-11.259l22.22-12.828z" fill="#FFE600"/></g><g clip-path="url(#clip0)" fill="#111348"><path d="M65.146 63.917H35.854A3.86 3.86 0 0132 60.062V56.98a.77.77 0 01.77-.77h.772c1.7 0 3.083-1.384 3.083-3.084 0-1.7-1.383-3.083-3.083-3.083h-.771A.771.771 0 0132 49.27v-3.084a3.86 3.86 0 013.854-3.854h29.292A3.86 3.86 0 0169 46.188v3.083a.77.77 0 01-.77.77h-.772a3.086 3.086 0 00-3.083 3.084c0 .823.32 1.597.903 2.18a3.056 3.056 0 002.179.903h.77c.426 0 .772.346.772.771v3.084a3.857 3.857 0 01-3.853 3.854zM33.542 57.75v2.313a2.315 2.315 0 002.312 2.312h29.292a2.315 2.315 0 002.312-2.313V57.75h-.001a4.592 4.592 0 01-3.268-1.353 4.597 4.597 0 01-1.356-3.272 4.63 4.63 0 014.625-4.625v-2.313a2.315 2.315 0 00-2.312-2.312H35.854a2.315 2.315 0 00-2.312 2.313V48.5a4.63 4.63 0 014.625 4.625 4.63 4.63 0 01-4.625 4.625z"/><path d="M45.104 45.417a.771.771 0 01-.77-.771v-1.542a.771.771 0 011.54 0v1.542a.77.77 0 01-.77.77zm0 13.043a.771.771 0 01-.77-.77v-2.607a.771.771 0 011.54 0v2.608a.77.77 0 01-.77.77zm0-6.52a.771.771 0 01-.77-.771V48.56a.771.771 0 011.54 0v2.609a.77.77 0 01-.77.77zm0 11.977a.771.771 0 01-.77-.771v-1.542a.771.771 0 011.54 0v1.542a.77.77 0 01-.77.77z"/><path d="M35.854 43.875a.768.768 0 01-.721-.501.768.768 0 01.451-.991l24.513-9.153c1.191-.447 2.591.222 2.998 1.423l2.78 8.203a.772.772 0 01-.483.977.773.773 0 01-.977-.482l-2.78-8.203a.788.788 0 00-1-.475l-24.513 9.153a.744.744 0 01-.268.049z"/></g><defs><clipPath id="clip0"><path fill="#fff" transform="translate(32 30)" d="M0 0h37v37H0z"/></clipPath><filter id="filter0_i" x="15.448" y="12.011" width="70.439" height="77.314" filterUnits="userSpaceOnUse" color-interpolation-filters="sRGB"><feFlood flood-opacity="0" result="BackgroundImageFix"/><feBlend in="SourceGraphic" in2="BackgroundImageFix" result="shape"/><feColorMatrix in="SourceAlpha" values="0 0 0 0 0 0 0 0 0 0 0 0 0 0 0 0 0 0 127 0" result="hardAlpha"/><feOffset/><feGaussianBlur stdDeviation="13"/><feComposite in2="hardAlpha" operator="arithmetic" k2="-1" k3="1"/><feColorMatrix values="0 0 0 0 1 0 0 0 0 1 0 0 0 0 1 0 0 0 0.46 0"/><feBlend in2="shape" result="effect1_innerShadow"/></filter></defs></svg>