<svg width="40" height="40" fill="none" xmlns="http://www.w3.org/2000/svg"><circle cx="20" cy="20" r="20" fill="#6C27FF"/><g clip-path="url(#clip0)" fill="#fff"><path d="M22.02 28.216a8.239 8.239 0 01-.5.109.805.805 0 00.293 1.581 9.3 9.3 0 00.596-.13.804.804 0 10-.389-1.56zm5.946-10.776a.8.8 0 001.016.51.804.804 0 00.51-1.016 9.953 9.953 0 00-.209-.572.804.804 0 10-1.493.597c.064.157.123.32.176.48zm-3.333 9.629a8.451 8.451 0 01-.436.27A.804.804 0 0025 28.73c.176-.101.35-.209.52-.32a.804.804 0 00-.887-1.342zm5.359-7.383a.804.804 0 00-1.606.063c.006.17.008.341.004.51a.803.803 0 101.608.036 9.919 9.919 0 00-.006-.61zm-2.157 5.268a.804.804 0 00-1.126.16c-.102.136-.21.27-.32.4a.804.804 0 001.224 1.043c.132-.155.26-.315.382-.478a.804.804 0 00-.16-1.125zm1.182-2.907a.804.804 0 00-1.008.527 8.49 8.49 0 01-.168.484.804.804 0 001.502.572c.073-.19.14-.383.2-.575a.804.804 0 00-.526-1.008zm-10.505 6.285a8.304 8.304 0 01-2.062-.655c-.008-.004-.014-.009-.023-.012a8.809 8.809 0 01-.459-.233 8.572 8.572 0 01-.8-.5c-3.782-2.664-4.691-7.909-2.027-11.691a8.355 8.355 0 012.062-2.052l.029-.02a8.406 8.406 0 019.42-.075l-.629.907c-.175.253-.067.437.239.41l2.728-.245a.45.45 0 00.407-.588l-.733-2.64c-.082-.296-.292-.331-.467-.078l-.63.91a9.929 9.929 0 00-7.275-1.548c-.258.045-.511.1-.761.163h-.005l-.03.009A9.914 9.914 0 0012 14.078l-.034.042a9.48 9.48 0 00-.348.502l-.022.038a9.912 9.912 0 00-1.585 5.847v.02c.01.202.025.406.047.608.001.013.004.025.006.038a9.922 9.922 0 002.884 5.989l.01.01.004.004c.393.388.82.746 1.281 1.07a9.914 9.914 0 003.987 1.669.804.804 0 10.283-1.583z"/><path d="M19.506 13.577a.65.65 0 00-.65.65v6.482l5.927 3.064a.65.65 0 00.597-1.156l-5.223-2.7v-5.69a.65.65 0 00-.65-.65z"/></g><defs><clipPath id="clip0"><path fill="#fff" transform="translate(10 10)" d="M0 0h20v20H0z"/></clipPath></defs></svg>