<svg width="110" height="110" fill="none" xmlns="http://www.w3.org/2000/svg"><g filter="url(#filter0_d)"><circle cx="55" cy="49" r="27" fill="#434686"/></g><path d="M65.52 46.064l-4.334-4.333a1.088 1.088 0 00-1.538 1.538l2.491 2.481H49.583a1.083 1.083 0 100 2.167H64.75a1.084 1.084 0 00.997-.672 1.083 1.083 0 00-.228-1.18zm-5.103 4.02H45.25a1.084 1.084 0 00-.997.671 1.083 1.083 0 00.228 1.18l4.333 4.334a1.084 1.084 0 001.539 0 1.084 1.084 0 000-1.538L47.86 52.25h12.556a1.083 1.083 0 100-2.167z" fill="#fff"/><defs><filter id="filter0_d" x="0" y="0" width="110" height="110" filterUnits="userSpaceOnUse" color-interpolation-filters="sRGB"><feFlood flood-opacity="0" result="BackgroundImageFix"/><feColorMatrix in="SourceAlpha" values="0 0 0 0 0 0 0 0 0 0 0 0 0 0 0 0 0 0 127 0"/><feOffset dy="6"/><feGaussianBlur stdDeviation="14"/><feColorMatrix values="0 0 0 0 0.262745 0 0 0 0 0.27451 0 0 0 0 0.52549 0 0 0 0.22 0"/><feBlend in2="BackgroundImageFix" result="effect1_dropShadow"/><feBlend in="SourceGraphic" in2="effect1_dropShadow" result="shape"/></filter></defs></svg>