<svg width="59" height="59" fill="none" xmlns="http://www.w3.org/2000/svg"><path d="M57.983 48.828H1.017A1.017 1.017 0 010 47.81V11.19c0-.562.456-1.018 1.017-1.018h56.966c.562 0 1.017.456 1.017 1.018v36.62c0 .562-.456 1.017-1.017 1.017z" fill="#F5F5F5"/><path d="M59 13.146H0V11.19c0-.562.456-1.018 1.017-1.018h56.966c.562 0 1.017.456 1.017 1.018v1.956zm0 8.92H0v2.974h59v-2.974zm0-5.946H0v2.973h59v-2.974zm0 14.867H1.017A1.017 1.017 0 010 29.97v-1.957h59v2.974zm0 8.921H0v2.974h59v-2.974zm-1.017 8.92H1.017A1.017 1.017 0 010 47.81v-1.956h59v1.956c0 .562-.456 1.017-1.017 1.017zM59 33.96H0v2.974h59v-2.973z" fill="#FF4B55"/><path d="M26.448 10.172H1.018C.455 10.172 0 10.628 0 11.19v18.78c0 .561.456 1.017 1.017 1.017h25.431c.562 0 1.018-.456 1.018-1.018V11.19c0-.561-.456-1.017-1.018-1.017z" fill="#41479B"/><path d="M2.857 12.507l.225.675.712.006c.092 0 .13.118.056.173l-.573.423.215.678a.096.096 0 01-.147.107l-.58-.414-.578.414a.096.096 0 01-.148-.107l.215-.678-.572-.423a.096.096 0 01.056-.173l.712-.006.225-.675a.096.096 0 01.182 0zm0 3.533l.225.675.712.005c.092.001.13.119.056.173l-.573.423.215.679a.096.096 0 01-.147.107l-.58-.414-.578.414a.096.096 0 01-.148-.107l.215-.679-.572-.422a.096.096 0 01.056-.174l.712-.005.225-.675a.096.096 0 01.182 0zm0 3.532l.225.675.712.006c.092 0 .13.118.056.173l-.573.423.215.678a.096.096 0 01-.147.107l-.58-.414-.578.414a.096.096 0 01-.148-.107l.215-.678-.572-.423a.096.096 0 01.056-.173l.712-.006.225-.675a.096.096 0 01.182 0zm0 3.532l.225.675.712.006c.092 0 .13.118.056.173l-.573.423.215.678a.096.096 0 01-.147.107l-.58-.413-.578.413a.096.096 0 01-.148-.106l.215-.679-.572-.423a.096.096 0 01.056-.173l.712-.006.225-.675a.096.096 0 01.182 0zm0 3.533l.225.675.712.005c.092.001.13.119.056.173l-.573.423.215.679a.096.096 0 01-.147.107l-.58-.414-.578.414a.096.096 0 01-.148-.107l.215-.679-.572-.423a.096.096 0 01.056-.173l.712-.005.225-.675a.096.096 0 01.182 0zm2.741-12.398l.226.675.711.005c.093.001.13.119.057.174l-.573.422.215.68a.096.096 0 01-.147.106l-.58-.414-.579.414a.096.096 0 01-.147-.107l.215-.678-.573-.423a.096.096 0 01.057-.174l.711-.005.226-.675a.096.096 0 01.181 0zm0 3.532l.226.675.711.006c.093 0 .13.118.057.173l-.573.423.215.679a.096.096 0 01-.147.106l-.58-.413-.579.413a.096.096 0 01-.147-.106l.215-.68-.573-.422a.096.096 0 01.057-.173l.711-.006.226-.675a.096.096 0 01.181 0zm0 3.533l.226.675.711.006c.093 0 .13.118.057.173l-.573.423.215.678a.096.096 0 01-.147.107l-.58-.414-.579.414a.096.096 0 01-.147-.107l.215-.678-.573-.423a.096.096 0 01.057-.173l.711-.006.226-.675a.096.096 0 01.181 0zm0 3.532l.226.675.711.006c.093 0 .13.118.057.173l-.573.423.215.678a.096.096 0 01-.147.107l-.58-.414-.579.414a.096.096 0 01-.147-.107l.215-.678-.573-.423a.096.096 0 01.057-.173l.711-.006.226-.675a.096.096 0 01.181 0zM8.34 12.507l.226.675.712.006c.092 0 .13.118.056.173l-.573.423.215.678a.096.096 0 01-.147.107l-.58-.414-.578.414a.096.096 0 01-.148-.107l.215-.678-.572-.423a.096.096 0 01.056-.173l.712-.006.225-.675a.096.096 0 01.182 0zm0 3.533l.226.674.712.006c.092 0 .13.118.056.173l-.573.423.215.678a.096.096 0 01-.147.107l-.58-.413-.578.413a.096.096 0 01-.148-.107l.215-.678-.572-.423a.096.096 0 01.056-.173l.712-.006.225-.675a.096.096 0 01.182 0zm0 3.532l.226.675.712.006c.092 0 .13.118.056.173l-.573.423.215.678a.096.096 0 01-.147.107l-.58-.414-.578.414a.096.096 0 01-.148-.107l.215-.678-.572-.423a.096.096 0 01.056-.173l.712-.006.225-.675a.096.096 0 01.182 0zm0 3.532l.226.675.712.006c.092 0 .13.118.056.173l-.573.423.215.678a.096.096 0 01-.147.107l-.58-.413-.578.413a.096.096 0 01-.148-.107l.215-.678-.572-.423a.096.096 0 01.056-.173l.712-.006.225-.675a.096.096 0 01.182 0zm0 3.533l.226.675.712.006c.092 0 .13.118.056.173l-.573.423.215.678a.096.096 0 01-.147.107l-.58-.414-.578.414a.096.096 0 01-.148-.107l.215-.678-.572-.423a.096.096 0 01.056-.173l.712-.006.225-.675a.096.096 0 01.182 0zm2.742-12.398l.225.675.712.005c.092.001.13.119.056.174l-.572.422.215.68a.096.096 0 01-.148.106l-.579-.414-.579.414a.096.096 0 01-.147-.107l.215-.678-.573-.423a.096.096 0 01.056-.174l.712-.005.225-.675a.096.096 0 01.182 0zm0 3.532l.225.675.712.006c.092 0 .13.118.056.173l-.572.423.215.679a.096.096 0 01-.148.106l-.579-.413-.579.413a.096.096 0 01-.147-.106l.215-.68-.573-.422a.096.096 0 01.056-.173l.712-.006.225-.675a.096.096 0 01.182 0zm0 3.533l.225.675.712.006c.092 0 .13.118.056.173l-.572.423.215.678a.096.096 0 01-.148.107l-.579-.414-.579.414a.096.096 0 01-.147-.107l.215-.678-.573-.423a.096.096 0 01.056-.173l.712-.006.225-.675a.096.096 0 01.182 0zm0 3.532l.225.675.712.006c.092 0 .13.118.056.173l-.572.423.215.678a.096.096 0 01-.148.107l-.579-.414-.579.414a.096.096 0 01-.147-.107l.215-.678-.573-.423a.096.096 0 01.056-.173l.712-.006.225-.675a.096.096 0 01.182 0zm2.742-12.329l.225.675.712.006c.092 0 .13.118.056.173l-.572.423.215.678a.096.096 0 01-.148.107l-.579-.414-.579.414a.096.096 0 01-.147-.107l.215-.678-.573-.423a.096.096 0 01.056-.173l.712-.006.225-.675a.096.096 0 01.182 0zm0 3.533l.225.674.712.006c.092 0 .13.118.056.173l-.572.423.215.678a.096.096 0 01-.148.107l-.579-.413-.579.413a.096.096 0 01-.147-.107l.215-.678-.573-.423a.096.096 0 01.056-.173l.712-.006.225-.675a.096.096 0 01.182 0zm0 3.532l.225.675.712.006c.092 0 .13.118.056.173l-.572.423.215.678a.096.096 0 01-.148.107l-.579-.414-.579.414a.096.096 0 01-.147-.107l.215-.678-.573-.423a.096.096 0 01.056-.173l.712-.006.225-.675a.096.096 0 01.182 0zm0 3.532l.225.675.712.006c.092 0 .13.118.056.173l-.572.423.215.678a.096.096 0 01-.148.107l-.579-.413-.579.413a.096.096 0 01-.147-.107l.215-.678-.573-.423a.096.096 0 01.056-.173l.712-.006.225-.675a.096.096 0 01.182 0zm0 3.533l.225.675.712.006c.092 0 .13.118.056.173l-.572.423.215.678a.096.096 0 01-.148.107l-.579-.414-.579.414a.096.096 0 01-.147-.107l.215-.678-.573-.423a.096.096 0 01.056-.173l.712-.006.225-.675a.096.096 0 01.182 0zm2.742-12.398l.225.675.712.005c.092.001.13.119.056.174l-.573.422.215.68a.096.096 0 01-.147.106l-.58-.414-.578.414a.096.096 0 01-.148-.107l.215-.678-.572-.423a.096.096 0 01.056-.174l.712-.005.225-.675a.096.096 0 01.182 0zm0 3.532l.225.675.712.006c.092 0 .13.118.056.173l-.573.423.215.679a.096.096 0 01-.147.106l-.58-.413-.578.413a.096.096 0 01-.148-.106l.215-.68-.572-.422a.096.096 0 01.056-.173l.712-.006.225-.675a.096.096 0 01.182 0zm0 3.533l.225.675.712.006c.092 0 .13.118.056.173l-.573.423.215.678a.096.096 0 01-.147.107l-.58-.414-.578.414a.096.096 0 01-.148-.107l.215-.678-.572-.423a.096.096 0 01.056-.173l.712-.006.225-.675a.096.096 0 01.182 0zm0 3.532l.225.675.712.006c.092 0 .13.118.056.173l-.573.423.215.678a.096.096 0 01-.147.107l-.58-.414-.578.414a.096.096 0 01-.148-.107l.215-.678-.572-.423a.096.096 0 01.056-.173l.712-.006.225-.675a.096.096 0 01.182 0zm2.741-12.329l.226.675.711.006c.093 0 .13.118.057.173l-.573.423.215.678a.096.096 0 01-.148.107l-.579-.414-.579.414a.096.096 0 01-.147-.107l.215-.678-.573-.423a.096.096 0 01.057-.173l.711-.006.226-.675a.096.096 0 01.181 0zm0 3.533l.226.674.711.006c.093 0 .13.118.057.173l-.573.423.215.678a.096.096 0 01-.148.107l-.579-.413-.579.413a.096.096 0 01-.147-.107l.215-.678-.573-.423a.096.096 0 01.057-.173l.711-.006.226-.675a.096.096 0 01.181 0zm0 3.532l.226.675.711.006c.093 0 .13.118.057.173l-.573.423.215.678a.096.096 0 01-.148.107l-.579-.414-.579.414a.096.096 0 01-.147-.107l.215-.678-.573-.423a.096.096 0 01.057-.173l.711-.006.226-.675a.096.096 0 01.181 0zm0 3.532l.226.675.711.006c.093 0 .13.118.057.173l-.573.423.215.678a.096.096 0 01-.148.107l-.579-.413-.579.413a.096.096 0 01-.147-.107l.215-.678-.573-.423a.096.096 0 01.057-.173l.711-.006.226-.675a.096.096 0 01.181 0zm0 3.533l.226.675.711.006c.093 0 .13.118.057.173l-.573.423.215.678a.096.096 0 01-.148.107l-.579-.414-.579.414a.096.096 0 01-.147-.107l.215-.678-.573-.423a.096.096 0 01.057-.173l.711-.006.226-.675a.096.096 0 01.181 0zm2.743-12.398l.225.675.712.005c.092.001.13.119.056.174l-.573.422.215.68a.096.096 0 01-.147.106l-.58-.414-.578.414a.096.096 0 01-.148-.107l.215-.678-.572-.423a.096.096 0 01.056-.174l.712-.005.225-.675a.096.096 0 01.182 0zm0 3.532l.225.675.712.006c.092 0 .13.118.056.173l-.573.423.215.679a.096.096 0 01-.147.106l-.58-.413-.578.413a.096.096 0 01-.148-.106l.215-.68-.572-.422a.096.096 0 01.056-.173l.712-.006.225-.675a.096.096 0 01.182 0zm0 3.533l.225.675.712.006c.092 0 .13.118.056.173l-.573.423.215.678a.096.096 0 01-.147.107l-.58-.414-.578.414a.096.096 0 01-.148-.107l.215-.678-.572-.423a.096.096 0 01.056-.173l.712-.006.225-.675a.096.096 0 01.182 0zm0 3.532l.225.675.712.006c.092 0 .13.118.056.173l-.573.423.215.678a.096.096 0 01-.147.107l-.58-.414-.578.414a.096.096 0 01-.148-.107l.215-.678-.572-.423a.096.096 0 01.056-.173l.712-.006.225-.675a.096.096 0 01.182 0zm2.741-12.329l.226.675.711.006c.092 0 .13.118.056.173l-.572.423.215.678a.096.096 0 01-.148.107l-.579-.414-.579.414a.096.096 0 01-.147-.107l.215-.678-.573-.423a.096.096 0 01.056-.173l.712-.006.226-.675a.096.096 0 01.181 0zm0 3.533l.226.674.711.006c.092 0 .13.118.056.173l-.572.423.215.678a.096.096 0 01-.148.107l-.579-.413-.579.413a.096.096 0 01-.147-.107l.215-.678-.573-.423a.096.096 0 01.056-.173l.712-.006.226-.675a.096.096 0 01.181 0zm0 3.532l.226.675.711.006c.092 0 .13.118.056.173l-.572.423.215.678a.096.096 0 01-.148.107l-.579-.414-.579.414a.096.096 0 01-.147-.107l.215-.678-.573-.423a.096.096 0 01.056-.173l.712-.006.226-.675a.096.096 0 01.181 0zm0 3.532l.226.675.711.006c.092 0 .13.118.056.173l-.572.423.215.678a.096.096 0 01-.148.107l-.579-.413-.579.413a.096.096 0 01-.147-.107l.215-.678-.573-.423a.096.096 0 01.056-.173l.712-.006.226-.675a.096.096 0 01.181 0zm0 3.533l.226.675.711.006c.092 0 .13.118.056.173l-.572.423.215.678a.096.096 0 01-.148.107l-.579-.414-.579.414a.096.096 0 01-.147-.107l.215-.678-.573-.423a.096.096 0 01.056-.173l.712-.006.226-.675a.096.096 0 01.181 0z" fill="#F5F5F5"/></svg>